<mxfile host="Electron" agent="Mozilla/5.0 (Windows NT 10.0; Win64; x64) AppleWebKit/537.36 (KHTML, like Gecko) draw.io/27.0.9 Chrome/134.0.6998.205 Electron/35.4.0 Safari/537.36" version="27.0.9">
  <diagram name="Page-1" id="kuY8G8nur3VCZi30DL3H">
    <mxGraphModel dx="872" dy="529" grid="1" gridSize="10" guides="1" tooltips="1" connect="1" arrows="1" fold="1" page="1" pageScale="1" pageWidth="850" pageHeight="1100" math="0" shadow="0">
      <root>
        <mxCell id="0" />
        <mxCell id="1" parent="0" />
        <mxCell id="Sx8iKpAuSLbhRklHiysv-1" value="" style="rounded=0;whiteSpace=wrap;html=1;fillColor=none;dashed=1;strokeColor=light-dark(#000000,#FFFFFF);" vertex="1" parent="1">
          <mxGeometry x="40" y="120" width="110" height="340" as="geometry" />
        </mxCell>
        <mxCell id="Sx8iKpAuSLbhRklHiysv-2" value="Sources" style="rounded=0;whiteSpace=wrap;html=1;fontSize=18;strokeColor=none;" vertex="1" parent="1">
          <mxGeometry x="45" y="90" width="100" height="60" as="geometry" />
        </mxCell>
        <mxCell id="Sx8iKpAuSLbhRklHiysv-7" style="edgeStyle=orthogonalEdgeStyle;rounded=0;orthogonalLoop=1;jettySize=auto;html=1;exitX=0;exitY=0.5;exitDx=0;exitDy=0;" edge="1" parent="1" source="Sx8iKpAuSLbhRklHiysv-3">
          <mxGeometry relative="1" as="geometry">
            <mxPoint x="230" y="280" as="targetPoint" />
          </mxGeometry>
        </mxCell>
        <mxCell id="Sx8iKpAuSLbhRklHiysv-3" value="" style="rounded=0;whiteSpace=wrap;html=1;fillColor=none;dashed=1;strokeColor=light-dark(#000000,#FFFFFF);" vertex="1" parent="1">
          <mxGeometry x="210" y="120" width="510" height="340" as="geometry" />
        </mxCell>
        <mxCell id="Sx8iKpAuSLbhRklHiysv-4" value="Data Warehouse" style="rounded=0;whiteSpace=wrap;html=1;fontSize=18;strokeColor=none;" vertex="1" parent="1">
          <mxGeometry x="392.5" y="90" width="145" height="60" as="geometry" />
        </mxCell>
        <mxCell id="Sx8iKpAuSLbhRklHiysv-5" value="" style="rounded=0;whiteSpace=wrap;html=1;fillColor=none;dashed=1;strokeColor=light-dark(#000000,#FFFFFF);" vertex="1" parent="1">
          <mxGeometry x="780" y="120" width="110" height="340" as="geometry" />
        </mxCell>
        <mxCell id="Sx8iKpAuSLbhRklHiysv-6" value="Consumers" style="rounded=0;whiteSpace=wrap;html=1;fontSize=18;strokeColor=none;" vertex="1" parent="1">
          <mxGeometry x="785" y="90" width="100" height="60" as="geometry" />
        </mxCell>
        <mxCell id="Sx8iKpAuSLbhRklHiysv-8" value="Bronze Layer" style="rounded=0;whiteSpace=wrap;html=1;fillColor=#D76942;fontColor=#ffffff;strokeColor=#6D1F00;" vertex="1" parent="1">
          <mxGeometry x="230" y="140" width="110" height="20" as="geometry" />
        </mxCell>
        <mxCell id="Sx8iKpAuSLbhRklHiysv-9" value="" style="rounded=0;whiteSpace=wrap;html=1;fillColor=none;fontColor=#ffffff;strokeColor=#6D1F00;" vertex="1" parent="1">
          <mxGeometry x="230" y="170" width="110" height="280" as="geometry" />
        </mxCell>
        <mxCell id="Sx8iKpAuSLbhRklHiysv-10" value="Silver Layer" style="rounded=0;whiteSpace=wrap;html=1;fillColor=#76608a;fontColor=#ffffff;strokeColor=#432D57;" vertex="1" parent="1">
          <mxGeometry x="410" y="140" width="110" height="20" as="geometry" />
        </mxCell>
        <mxCell id="Sx8iKpAuSLbhRklHiysv-11" value="" style="rounded=0;whiteSpace=wrap;html=1;fillColor=none;fontColor=#ffffff;strokeColor=#432D57;" vertex="1" parent="1">
          <mxGeometry x="405" y="167.44" width="110" height="282.56" as="geometry" />
        </mxCell>
        <mxCell id="Sx8iKpAuSLbhRklHiysv-12" value="Gold Layer" style="rounded=0;whiteSpace=wrap;html=1;fillColor=#e3c800;fontColor=#000000;strokeColor=#B09500;" vertex="1" parent="1">
          <mxGeometry x="590" y="140" width="110" height="20" as="geometry" />
        </mxCell>
        <mxCell id="Sx8iKpAuSLbhRklHiysv-13" value="" style="rounded=0;whiteSpace=wrap;html=1;fillColor=none;fontColor=#000000;strokeColor=#B09500;" vertex="1" parent="1">
          <mxGeometry x="590" y="170" width="110" height="280" as="geometry" />
        </mxCell>
        <mxCell id="Sx8iKpAuSLbhRklHiysv-14" value="CRM" style="image;aspect=fixed;html=1;points=[];align=center;fontSize=12;image=img/lib/azure2/general/Folder_Blank.svg;" vertex="1" parent="1">
          <mxGeometry x="61.489999999999995" y="180" width="49.28" height="40" as="geometry" />
        </mxCell>
        <mxCell id="Sx8iKpAuSLbhRklHiysv-15" value="" style="image;aspect=fixed;html=1;points=[];align=center;fontSize=12;image=img/lib/azure2/general/File.svg;" vertex="1" parent="1">
          <mxGeometry x="100" y="190" width="28.51" height="35.12" as="geometry" />
        </mxCell>
        <mxCell id="Sx8iKpAuSLbhRklHiysv-17" value="ERP" style="image;aspect=fixed;html=1;points=[];align=center;fontSize=12;image=img/lib/azure2/general/Folder_Blank.svg;" vertex="1" parent="1">
          <mxGeometry x="61.49" y="272.44" width="49.28" height="40" as="geometry" />
        </mxCell>
        <mxCell id="Sx8iKpAuSLbhRklHiysv-18" value="" style="image;aspect=fixed;html=1;points=[];align=center;fontSize=12;image=img/lib/azure2/general/File.svg;" vertex="1" parent="1">
          <mxGeometry x="100" y="282.44" width="28.51" height="35.12" as="geometry" />
        </mxCell>
        <mxCell id="Sx8iKpAuSLbhRklHiysv-19" value="Object Type: CSV Files" style="text;html=1;align=center;verticalAlign=middle;whiteSpace=wrap;rounded=0;" vertex="1" parent="1">
          <mxGeometry x="40" y="370" width="110" height="30" as="geometry" />
        </mxCell>
        <mxCell id="Sx8iKpAuSLbhRklHiysv-22" value="" style="html=1;verticalLabelPosition=bottom;align=center;labelBackgroundColor=#ffffff;verticalAlign=top;strokeWidth=2;strokeColor=#6D1F00;shadow=0;dashed=0;shape=mxgraph.ios7.icons.data;fillColor=default;fontColor=#ffffff;" vertex="1" parent="1">
          <mxGeometry x="265" y="182.56" width="40" height="50" as="geometry" />
        </mxCell>
        <mxCell id="Sx8iKpAuSLbhRklHiysv-23" value="" style="html=1;verticalLabelPosition=bottom;align=center;labelBackgroundColor=#ffffff;verticalAlign=top;strokeWidth=2;strokeColor=#432D57;shadow=0;dashed=0;shape=mxgraph.ios7.icons.data;fillColor=default;fontColor=#ffffff;" vertex="1" parent="1">
          <mxGeometry x="445" y="180" width="40" height="50" as="geometry" />
        </mxCell>
        <mxCell id="Sx8iKpAuSLbhRklHiysv-24" value="" style="html=1;verticalLabelPosition=bottom;align=center;labelBackgroundColor=#ffffff;verticalAlign=top;strokeWidth=2;strokeColor=#B09500;shadow=0;dashed=0;shape=mxgraph.ios7.icons.data;fillColor=default;fontColor=#000000;" vertex="1" parent="1">
          <mxGeometry x="625" y="182.56" width="40" height="50" as="geometry" />
        </mxCell>
        <mxCell id="Sx8iKpAuSLbhRklHiysv-25" value="" style="shape=singleArrow;whiteSpace=wrap;html=1;fillColor=#b1ddf0;strokeColor=#10739e;" vertex="1" parent="1">
          <mxGeometry x="150" y="220" width="60" height="30" as="geometry" />
        </mxCell>
        <mxCell id="Sx8iKpAuSLbhRklHiysv-26" value="" style="shape=singleArrow;whiteSpace=wrap;html=1;fillColor=#b1ddf0;strokeColor=#10739e;" vertex="1" parent="1">
          <mxGeometry x="340" y="220" width="60" height="30" as="geometry" />
        </mxCell>
        <mxCell id="Sx8iKpAuSLbhRklHiysv-27" value="" style="shape=singleArrow;whiteSpace=wrap;html=1;fillColor=#b1ddf0;strokeColor=#10739e;" vertex="1" parent="1">
          <mxGeometry x="520" y="220" width="70" height="30" as="geometry" />
        </mxCell>
        <mxCell id="Sx8iKpAuSLbhRklHiysv-28" value="" style="shape=singleArrow;whiteSpace=wrap;html=1;fillColor=#b1ddf0;strokeColor=#10739e;" vertex="1" parent="1">
          <mxGeometry x="720" y="220" width="60" height="30" as="geometry" />
        </mxCell>
        <mxCell id="Sx8iKpAuSLbhRklHiysv-29" value="Row Data" style="text;html=1;align=center;verticalAlign=middle;whiteSpace=wrap;rounded=0;" vertex="1" parent="1">
          <mxGeometry x="255" y="235" width="60" height="30" as="geometry" />
        </mxCell>
        <mxCell id="Sx8iKpAuSLbhRklHiysv-30" value="Clean Standardized Data" style="text;html=1;align=center;verticalAlign=middle;whiteSpace=wrap;rounded=0;" vertex="1" parent="1">
          <mxGeometry x="415" y="242.44" width="100" height="30" as="geometry" />
        </mxCell>
        <mxCell id="Sx8iKpAuSLbhRklHiysv-31" value="Business Ready Data" style="text;html=1;align=center;verticalAlign=middle;whiteSpace=wrap;rounded=0;" vertex="1" parent="1">
          <mxGeometry x="600" y="242.44" width="90" height="30" as="geometry" />
        </mxCell>
        <mxCell id="Sx8iKpAuSLbhRklHiysv-33" value="" style="line;strokeWidth=2;html=1;dashed=1;" vertex="1" parent="1">
          <mxGeometry x="230" y="275" width="110" height="10" as="geometry" />
        </mxCell>
        <mxCell id="Sx8iKpAuSLbhRklHiysv-34" value="" style="line;strokeWidth=2;html=1;dashed=1;" vertex="1" parent="1">
          <mxGeometry x="405" y="275" width="110" height="10" as="geometry" />
        </mxCell>
        <mxCell id="Sx8iKpAuSLbhRklHiysv-35" value="" style="line;strokeWidth=2;html=1;dashed=1;" vertex="1" parent="1">
          <mxGeometry x="590" y="275" width="110" height="10" as="geometry" />
        </mxCell>
        <mxCell id="Sx8iKpAuSLbhRklHiysv-36" value="&lt;font style=&quot;font-size: 10px;&quot;&gt;&lt;b&gt;Object Type&lt;/b&gt;: Tables&lt;/font&gt;&lt;div&gt;&lt;font style=&quot;font-size: 10px;&quot;&gt;&lt;b&gt;Load:&lt;/b&gt;&lt;/font&gt;&lt;/div&gt;&lt;div&gt;&lt;span style=&quot;font-size: 10px; background-color: transparent; color: light-dark(rgb(0, 0, 0), rgb(255, 255, 255)); white-space: pre;&quot;&gt;&#x9;&lt;/span&gt;&lt;span style=&quot;font-size: 10px; background-color: transparent; color: light-dark(rgb(0, 0, 0), rgb(255, 255, 255));&quot;&gt;Batch Processing&lt;/span&gt;&lt;br&gt;&lt;span style=&quot;font-size: 10px; background-color: transparent; color: light-dark(rgb(0, 0, 0), rgb(255, 255, 255)); white-space: pre;&quot;&gt;&#x9;&lt;/span&gt;&lt;span style=&quot;font-size: 10px; background-color: transparent; color: light-dark(rgb(0, 0, 0), rgb(255, 255, 255));&quot;&gt;Full Load (Trunc &lt;/span&gt;&lt;span style=&quot;font-size: 10px; background-color: transparent; color: light-dark(rgb(0, 0, 0), rgb(255, 255, 255)); white-space: pre;&quot;&gt;&#x9;&lt;/span&gt;&lt;span style=&quot;font-size: 10px; background-color: transparent; color: light-dark(rgb(0, 0, 0), rgb(255, 255, 255));&quot;&gt;and &lt;/span&gt;&lt;span style=&quot;font-size: 10px; background-color: transparent; color: light-dark(rgb(0, 0, 0), rgb(255, 255, 255)); white-space: pre;&quot;&gt;&#x9;&lt;/span&gt;&lt;span style=&quot;font-size: 10px; background-color: transparent; color: light-dark(rgb(0, 0, 0), rgb(255, 255, 255));&quot;&gt;Insert)&lt;/span&gt;&lt;/div&gt;&lt;div&gt;&lt;font style=&quot;font-size: 10px;&quot;&gt;No Transformation&lt;/font&gt;&lt;/div&gt;&lt;div&gt;&lt;font style=&quot;font-size: 10px;&quot;&gt;&lt;b&gt;Data Model:&lt;/b&gt; None&lt;/font&gt;&lt;/div&gt;" style="text;html=1;align=left;verticalAlign=middle;whiteSpace=wrap;rounded=0;fontSize=8;" vertex="1" parent="1">
          <mxGeometry x="230" y="282.44" width="110" height="82.44" as="geometry" />
        </mxCell>
        <mxCell id="Sx8iKpAuSLbhRklHiysv-37" value="&lt;font style=&quot;font-size: 9px;&quot;&gt;&lt;b style=&quot;&quot;&gt;Object Type&lt;/b&gt;: Tables&lt;/font&gt;&lt;div&gt;&lt;font style=&quot;font-size: 9px;&quot;&gt;&lt;b&gt;Load:&lt;/b&gt;&lt;/font&gt;&lt;/div&gt;&lt;div&gt;&lt;ol&gt;&lt;li&gt;&lt;font style=&quot;font-size: 9px;&quot;&gt;Batch Processing&lt;/font&gt;&lt;/li&gt;&lt;li&gt;&lt;font style=&quot;font-size: 9px;&quot;&gt;Full Load&amp;nbsp;&lt;/font&gt;&lt;/li&gt;&lt;/ol&gt;&lt;/div&gt;&lt;div&gt;&lt;font style=&quot;font-size: 9px;&quot;&gt;Transformation:&lt;/font&gt;&lt;/div&gt;&lt;div&gt;&lt;ol&gt;&lt;li&gt;&lt;font style=&quot;font-size: 9px;&quot;&gt;Data Cleansing&lt;/font&gt;&lt;/li&gt;&lt;li&gt;&lt;font style=&quot;font-size: 9px;&quot;&gt;Data &lt;span style=&quot;white-space: pre;&quot;&gt;&#x9;&lt;/span&gt;Standardization&lt;/font&gt;&lt;/li&gt;&lt;li&gt;&lt;font style=&quot;font-size: 9px;&quot;&gt;Data Normalization&lt;/font&gt;&lt;/li&gt;&lt;li&gt;&lt;font style=&quot;font-size: 9px;&quot;&gt;Derived Columns&lt;/font&gt;&lt;/li&gt;&lt;li&gt;&lt;font style=&quot;font-size: 9px;&quot;&gt;Data Enrichment&lt;/font&gt;&lt;/li&gt;&lt;/ol&gt;&lt;/div&gt;&lt;div&gt;&lt;font style=&quot;font-size: 9px;&quot;&gt;&lt;br&gt;&lt;/font&gt;&lt;/div&gt;&lt;div&gt;&lt;font style=&quot;font-size: 9px;&quot;&gt;&lt;b style=&quot;&quot;&gt;Data Model:&lt;/b&gt; None&lt;/font&gt;&lt;/div&gt;" style="text;html=1;align=left;verticalAlign=middle;whiteSpace=wrap;rounded=0;fontSize=8;" vertex="1" parent="1">
          <mxGeometry x="405" y="285" width="110" height="165" as="geometry" />
        </mxCell>
        <mxCell id="Sx8iKpAuSLbhRklHiysv-38" value="" style="line;strokeWidth=2;html=1;dashed=1;" vertex="1" parent="1">
          <mxGeometry x="40" y="340" width="110" height="10" as="geometry" />
        </mxCell>
        <mxCell id="Sx8iKpAuSLbhRklHiysv-39" value="&lt;font style=&quot;font-size: 9px;&quot;&gt;&lt;b style=&quot;&quot;&gt;Object Type&lt;/b&gt;: Views&lt;/font&gt;&lt;div&gt;&lt;font size=&quot;1&quot;&gt;&lt;b&gt;No Load&lt;/b&gt;&lt;/font&gt;&lt;/div&gt;&lt;div&gt;&lt;font style=&quot;font-size: 9px;&quot;&gt;Transformation:&lt;/font&gt;&lt;/div&gt;&lt;div&gt;&lt;ol&gt;&lt;li&gt;&lt;font style=&quot;font-size: 9px;&quot;&gt;Data Integration&lt;/font&gt;&lt;/li&gt;&lt;li&gt;&lt;font style=&quot;font-size: 9px;&quot;&gt;Aggregation&lt;/font&gt;&lt;/li&gt;&lt;li&gt;&lt;font size=&quot;1&quot;&gt;Business Logic&lt;/font&gt;&lt;/li&gt;&lt;/ol&gt;&lt;/div&gt;&lt;div&gt;&lt;font style=&quot;font-size: 9px;&quot;&gt;&lt;b style=&quot;&quot;&gt;Data Model:&lt;/b&gt;&lt;/font&gt;&lt;/div&gt;&lt;div&gt;&lt;ol&gt;&lt;li&gt;&lt;font style=&quot;font-size: 9px;&quot;&gt;&lt;b style=&quot;&quot;&gt;Star Schema&lt;/b&gt;&lt;/font&gt;&lt;/li&gt;&lt;li&gt;&lt;font style=&quot;font-size: 9px;&quot;&gt;&lt;b style=&quot;&quot;&gt;Flat Table&lt;/b&gt;&lt;/font&gt;&lt;/li&gt;&lt;li&gt;&lt;font style=&quot;font-size: 9px;&quot;&gt;&lt;b style=&quot;&quot;&gt;Aggregate Table&lt;/b&gt;&lt;/font&gt;&lt;/li&gt;&lt;/ol&gt;&lt;/div&gt;" style="text;html=1;align=left;verticalAlign=middle;whiteSpace=wrap;rounded=0;fontSize=8;" vertex="1" parent="1">
          <mxGeometry x="590" y="282.44" width="110" height="165" as="geometry" />
        </mxCell>
        <mxCell id="Sx8iKpAuSLbhRklHiysv-40" value="BI" style="image;aspect=fixed;html=1;points=[];align=center;fontSize=12;image=img/lib/azure2/power_platform/PowerBI.svg;" vertex="1" parent="1">
          <mxGeometry x="820" y="170" width="30" height="40" as="geometry" />
        </mxCell>
        <mxCell id="Sx8iKpAuSLbhRklHiysv-42" value="&lt;font style=&quot;color: rgb(255, 255, 255);&quot;&gt;SQL Queries&lt;/font&gt;" style="sketch=0;points=[[0,0,0],[0.25,0,0],[0.5,0,0],[0.75,0,0],[1,0,0],[0,1,0],[0.25,1,0],[0.5,1,0],[0.75,1,0],[1,1,0],[0,0.25,0],[0,0.5,0],[0,0.75,0],[1,0.25,0],[1,0.5,0],[1,0.75,0]];outlineConnect=0;fontColor=#232F3E;fillColor=#8C4FFF;strokeColor=#ffffff;dashed=0;verticalLabelPosition=bottom;verticalAlign=top;align=center;html=1;fontSize=12;fontStyle=0;aspect=fixed;shape=mxgraph.aws4.resourceIcon;resIcon=mxgraph.aws4.elasticsearch_service;" vertex="1" parent="1">
          <mxGeometry x="810" y="265" width="50" height="50" as="geometry" />
        </mxCell>
        <mxCell id="Sx8iKpAuSLbhRklHiysv-43" value="Machine Learning" style="points=[];aspect=fixed;html=1;align=center;shadow=0;dashed=0;fillColor=#FF6A00;strokeColor=none;shape=mxgraph.alibaba_cloud.machine_learning;verticalAlign=bottom;" vertex="1" parent="1">
          <mxGeometry x="810.2" y="364.88" width="49.8" height="50.099999999999994" as="geometry" />
        </mxCell>
        <mxCell id="Sx8iKpAuSLbhRklHiysv-44" value="" style="points=[];aspect=fixed;html=1;align=center;shadow=0;dashed=0;fillColor=#FF6A00;strokeColor=none;shape=mxgraph.alibaba_cloud.mysql;" vertex="1" parent="1">
          <mxGeometry x="210" y="75" width="40" height="37.27" as="geometry" />
        </mxCell>
      </root>
    </mxGraphModel>
  </diagram>
</mxfile>
